<svg xmlns="http://www.w3.org/2000/svg" xmlns:xlink="http://www.w3.org/1999/xlink" viewBox="0 0 1155.3 1135.4" id="footer-1"><symbol id="footer-1_tree1" viewBox="-6.8 -21.7 13.3 56"><path fill="none" stroke="#1318C8" stroke-width="2" stroke-linecap="round" stroke-linejoin="round" stroke-miterlimit="10" d="M0-8.3v-12.4"></path><ellipse fill="#FFF" stroke="#1318C8" stroke-width="2" stroke-linecap="round" stroke-linejoin="round" stroke-miterlimit="10" cx="-.1" cy="14" rx="5.7" ry="19.3"></ellipse></symbol><g id="footer-1_clouds2"><g id="footer-1_cloud6" fill="#FFF" stroke="#1318C8" stroke-linecap="round" stroke-linejoin="round" stroke-miterlimit="10" style="transform: translateY(-56.03px);"><path d="M57.7 553.2H0c.4-3.6 2.8-7 6-8.7 3.3-1.7 7.3-1.6 10.5.1.8-4.2 4.2-7 8.3-7.8s8.1 2 10.4 5.6c5.8-5.4 15.6-5.8 21.8-.9-1.3-10.5 7.6-21.2 18.2-21.9s20.8 8.7 20.9 19.3c4.6-2.1 9.7-3.8 14.7-3 5 .9 9.7 5.1 9.6 10.1 4.7-3.6 12.8.8 12.2 7.2H112M71.3 553.2h21.8M103 553.2h2.3"></path></g><g id="footer-1_cloud5" fill="#FFF" stroke="#1318C8" stroke-linecap="round" stroke-miterlimit="10" style="transform: translateY(-140.075px);"><path d="M671 218.9h36l78.3-.6c-12.1-14.3-33-16.3-45.1-7.8-6.4-10.9-21.9-15.2-33-9.1-8.6-13.6-24.3-22.3-40.4-22.4-16.1-.1-31.9 8.4-40.7 21.8-4.2-.8-35-7.6-45.6 18.1h13.2M642.1 218.9h-18.8M605 218.9h3.7"></path></g><g id="footer-1_cloud4" fill="#FFF" stroke="#1318C8" stroke-linecap="round" stroke-linejoin="round" stroke-miterlimit="10" style="transform: translateY(-168.09px);"><path d="M395.8 263.6c0-3.3-2.6-5.2-4.8-6-8.5-3.2-12.3.8-12.3.8-4.4-8.6-15.6-14-24.6-8.2-3.3 2.1-8.6 8.1-7.2 11.9-.7-.9-2.7-2.9-5.9-2.9-2.1 0-4.2.4-6 1.5 0 0-.6-.6-1.5-1.6-2.3-2-6.8-1.7-10-.2-3.1 1.5-5.5 4.3-6.9 7.5h75M407 265.3c-1.9-4.9-9.9-3.3-11.2-1.7M400.5 266.4h2.7"></path></g><g id="footer-1_cloud3" fill="#FFF" stroke="#1318C8" stroke-linecap="round" stroke-linejoin="round" stroke-miterlimit="10" style="transform: translateY(-28.015px);"><path d="M1155.3 581.3c-6.5-9.1-16.6-15.5-27.5-17.6-11-2.1-22.5 1-31.9 6.9.5-11.6-7-23.1-17.7-27.4s-23.3-.8-31 7.8c-3.7-14.4-11.4-28-23.4-36.9-11.9-8.8-28.3-12.2-42.1-6.9-13.8 5.3-21.5 20.1-19.7 34.8-8.6-6.6-20.2-9.1-30.8-6.5-10.5 2.6-18.6 10.1-23.1 20-15.4-12.9-36.4-18.8-56.3-15.9-19.9 2.9-45.1 22-49.4 41.7h185.3M1003.4 581.3h112.9M1129.9 581.3h13.5"></path></g><g id="footer-1_cloud2" style="transform: translateY(-112.06px);"><g fill="#FFF"><path d="M570.3 345.5c-.1-6.1-4.9-9.7-8.9-11.2-15.9-5.9-23 1.5-23 1.5-8.2-16.1-29.2-26.2-46.2-15.3-6.3 4-16.1 15.3-13.5 22.2-1.3-1.6-5.1-5.5-11-5.4-3.9 0-7.9.7-11.3 2.7 0 0-1.2-1.2-2.8-2.9-4.4-3.8-12.8-3.1-18.7-.3-5.8 2.8-10.3 8.1-13 14h150.3M591.3 348.6c-3.5-9.2-18.6-6.2-21-3.1M579.1 350.7h5.1"></path></g><g stroke="#1318C8" stroke-linecap="round" stroke-linejoin="round" stroke-miterlimit="10"><path fill="#FFF" d="M570.3 345.5c-.1-6.1-4.9-9.7-8.9-11.2-15.9-5.9-23 1.5-23 1.5-8.2-16.1-29.2-26.2-46.2-15.3-6.3 4-16.1 15.3-13.5 22.2-1.3-1.6-5.1-5.5-11-5.4-3.9 0-7.9.7-11.3 2.7 0 0-1.2-1.2-2.8-2.9-4.4-3.8-12.8-3.1-18.7-.3-5.8 2.8-10.3 8.1-13 14h150.3"></path><path fill="#FBF9F5" d="M591.3 348.6c-3.5-9.2-18.6-6.2-21-3.1M579.1 350.7h5.1"></path></g><g fill="none" stroke="#1318C8" stroke-linecap="round" stroke-linejoin="round" stroke-miterlimit="10"><path d="M570.3 345.5c-.1-6.1-4.9-9.7-8.9-11.2-15.9-5.9-23 1.5-23 1.5-8.2-16.1-29.2-26.2-46.2-15.3-6.3 4-16.1 15.3-13.5 22.2-1.3-1.6-5.1-5.5-11-5.4-3.9 0-7.9.7-11.3 2.7 0 0-1.2-1.2-2.8-2.9-4.4-3.8-12.8-3.1-18.7-.3-5.8 2.8-10.3 8.1-13 14h150.3M591.3 348.6c-3.5-9.2-18.6-6.2-21-3.1M579.1 350.7h5.1"></path></g></g></g><g stroke="#1318C8" stroke-linecap="round" stroke-linejoin="round" stroke-miterlimit="10" id="footer-1_island3" style="transform: translateY(-112.06px);"><path fill="#FFF" stroke-width="2" d="M762.5 439.1l22 43 24.3-45.2-25.4-2.9-13.6 2.2"></path><path fill="none" d="M770.6 441.1l16.6 2 11.2-1.9"></path><path fill="none" stroke-width="2" d="M778.3 406.4v29.7M791 398.6v24.8M785.4 415.6V439M798.8 424.1v12M771.2 427.6v10.7M783.9 394.4v9.9"></path><path fill="none" d="M774.1 446.4l6.5 19.3M794.4 449.2c-3.3 7.5-6.1 15.2-8.3 23.1"></path></g><g id="footer-1_island2" style="transform: translateY(-84.045px);"><path fill="#FFF" d="M324.3 501.9c-5.9-12.2-16.9-21.2-21.9-34.2-7-16-15-32-14.5-49.9-2.9 1.6-5.9 3.3-8.8 4.9-3.7-10.4-7.3-21-9.7-31.8-14 30.7-24 62.7-48 88.7-2 2-3 5-4 7-2 6-5 10-7 16 7 10 11 21 19 31 2 3 2 6 4 9 3 4 5 8 8 12 2 3 2 6 4 9 3 4 5 8 8 12l14 25 47.6-82.2 9.3-16.5z"></path><path fill="#D7DBF9" d="M269.8 392.8l1.2 30.5 4.9 7.6-.5 14.9 4.3 14.9 5.6 38.7-.6 17.1-5 39.6-12.3 44.6 56.9-98.8-8.8-13.7-9.2-12.7-8.6-18.6-8.5-24.6-1.2-14.5-8.9 4.9z"></path><path fill="none" stroke="#1318C8" stroke-width="2" stroke-linecap="round" stroke-miterlimit="10" d="M321.3 507.1c1-1.7 2-3.5 3-5.2M291.6 544.3c-8.1 18.9-15.4 38-24.1 56.6.7-1.2 1.4-2.4 2-3.7-.8 1.1-1.5 2.4-2 3.7 12.3-21.5 25.1-42.7 37.4-64.1 3.4-5.9 6.8-11.8 9.7-17.9M298.3 529.2l-3.3 7.2"></path><path fill="none" stroke="#1318C8" stroke-width="2" stroke-linecap="round" stroke-linejoin="round" stroke-miterlimit="10" d="M324.3 501.9c-5.9-12.2-16.9-21.2-21.9-34.2-7-16-15-32-14.5-49.9-2.9 1.6-5.9 3.3-8.8 4.9-3.7-10.4-7.3-21-9.7-31.8-14 30.7-24 62.7-48 88.7-2 2-3 5-4 7-2 6-5 10-7 16 7 10 11 21 19 31 2 3 2 6 4 9 3 4 5 8 8 12 2 3 2 6 4 9 3 4 5 8 8 12 4 9 10 16 14 25.2-.9-1.9-1.9-3.7-3.1-5.4.9 1.9 2 3.6 3.1 5.4-3.3-9.5-7.6-18.5-12-27.6-4.3-9-7.9-18.1-11.7-27.4M236.5 529.5c1.4 2.9 2.8 5.8 4.1 8.8M229.7 513.9l3.6 8.4"></path><path fill="none" stroke="#1318C8" stroke-width="2" stroke-linecap="round" stroke-linejoin="round" stroke-miterlimit="10" d="M257.9 436.3c1 5 1.9 9.9 2.9 14.9 3.2-6.6 6.9-13 11.2-18.9.4 1.7 2.1 13.2 3.3 13.5 2 .4 4-9.3 4.4-10.8.9 1.5 8 11.4 9.4 8.5"></path><path fill="none" stroke="#1318C8" stroke-linecap="round" stroke-linejoin="round" stroke-miterlimit="10" d="M298.1 497.6l3.3 11.4M287.3 460.7c2.7 9.2 5.4 18.3 8.1 27.5M276.1 459.8v29.3M261.8 466.3l-12.9 39.9M228.8 484.4c5-7.9 10.1-15.8 15.1-23.7M233.4 499.4c2.2-5 4.5-10.1 6.7-15.1M306.3 493.9l3.9 7.5M266.8 497.6c-.4 2.8-.8 5.7-1.2 8.5M285.3 504.2c-.9 4.1-1.1 8.2-.6 12.4"></path><path fill="#D7DBF9" stroke="#1318C8" stroke-miterlimit="10" d="M256.4 428c.4 1.6.8 3.2 1.4 4.8"></path><path fill="none" stroke="#1318C8" stroke-width="2" stroke-linecap="round" stroke-linejoin="round" stroke-miterlimit="10" d="M256.9 429.1l.3 2.1"></path></g><g id="footer-1_island1_1_"><linearGradient id="footer-1_1_" gradientUnits="userSpaceOnUse" x1="575.77" y1="1061.973" x2="527.319" y2="756.517"><stop offset="0" stop-color="#d7dbf9"></stop><stop offset=".589" stop-color="#6468dc"></stop><stop offset="1" stop-color="#1318c8"></stop></linearGradient><path fill="url(#footer-1_1_)" d="M123.4 751.7l403.1 286.1 403.2-286.1"></path><linearGradient id="footer-1_2_" gradientUnits="userSpaceOnUse" x1="524.252" y1="1035.342" x2="530.974" y2="484.142"><stop offset="0" stop-color="#d7dbf9"></stop><stop offset=".589" stop-color="#6468dc"></stop><stop offset="1" stop-color="#1318c8"></stop></linearGradient><path fill="url(#footer-1_2_)" d="M526.5 1037.8L324.4 847h404.3z"></path><linearGradient id="footer-1_3_" gradientUnits="userSpaceOnUse" x1="332.374" y1="881.892" x2="610.334" y2="398.198"><stop offset="0" stop-color="#d7dbf9"></stop><stop offset=".589" stop-color="#6468dc"></stop><stop offset="1" stop-color="#1318c8"></stop></linearGradient><path fill="url(#footer-1_3_)" d="M526.5 1037.8L324.4 847l-201-95.3z"></path><linearGradient id="footer-1_4_" gradientUnits="userSpaceOnUse" x1="682.03" y1="668.709" x2="277.826" y2="1116.611"><stop offset="0" stop-color="#fff" stop-opacity="0"></stop><stop offset="1" stop-color="#fff"></stop></linearGradient><path fill="url(#footer-1_4_)" d="M394.8 912.6l72.1 68.9L587.2 847H454.6z"></path><linearGradient id="footer-1_5_" gradientUnits="userSpaceOnUse" x1="789.624" y1="973.342" x2="866.64" y2="708.064"><stop offset="0" stop-color="#fff" stop-opacity="0"></stop><stop offset="1" stop-color="#fff"></stop></linearGradient><path fill="url(#footer-1_5_)" d="M775.5 824.5L739 887l190.7-135.3z"></path><linearGradient id="footer-1_6_" gradientUnits="userSpaceOnUse" x1="307.684" y1="987.398" x2="219.794" y2="690.77"><stop offset="0" stop-color="#fff" stop-opacity="0"></stop><stop offset="1" stop-color="#fff"></stop></linearGradient><path fill="url(#footer-1_6_)" d="M312.3 885.7l-26.5-57.1-69.7-33.2 26.1 40.4z"></path><path fill="#FFF" d="M728.1 656.3l201.6 95.4L728.1 847H325l-201.6-95.3L325 656.3z"></path><path fill="#FFF" stroke="#1318C8" stroke-width="3" stroke-linecap="round" stroke-linejoin="round" stroke-miterlimit="10" d="M462.7 656.3h265.4l201.6 95.4L728.1 847h-225"></path><path fill="#D7DBF9" d="M679 751.9l124.9-57.7-44.7-21.5-31.5-15.6-49.5.3zM525.9 779.3l40-16-5-54.5-57.5-8.5z"></path><path fill="none" stroke="#1318C8" stroke-width="3" stroke-linecap="round" stroke-linejoin="round" stroke-miterlimit="10" d="M462.7 656.3h265.4l201.6 95.4L728.1 847h-225"></path><path fill="#FFF" stroke="#1318C8" stroke-width="3" stroke-linecap="round" stroke-linejoin="round" stroke-miterlimit="10" d="M436.8 656.3h6.2M409.4 847H325l-201.6-95.3L325 656.3h103.3"></path><path fill="none" stroke="#96A0ED" stroke-width="7" stroke-linecap="round" stroke-linejoin="round" stroke-miterlimit="10" d="M345.9 742h68.6l7.4-6.5"></path><path fill="#96A0ED" d="M810.4 758.1h-96.5c-3.6 0-6.5-2.9-6.5-6.5s2.9-6.5 6.5-6.5h96.5c3.6 0 6.5 2.9 6.5 6.5s-2.9 6.5-6.5 6.5z"></path><path fill="#96A0ED" d="M766.7 725.3h-29.5c-10.4 4.7-20.8 8.6-31.2 14.2.4 1.3.6 2.6.6 3.8 0 24.5-74 51.7-180.1 51.7s-180.1-27.3-180.1-51.7c0-24.5 74-51.7 180.1-51.7 38.5 0 72.8 3.6 100.8 9.3.6-4.3 1.3-8.4 2.3-12.8-30.5-6.2-66-9.5-103.1-9.5-50.5 0-98 6.2-133.9 17.3-38.7 12.1-59.2 28.5-59.2 47.4s20.5 35.3 59.2 47.4C428.5 801.9 476 808 526.5 808s98-6.2 133.9-17.3c38.7-12.1 59.2-28.5 59.2-47.4 0-1.7-.2-3.3-.5-5h47.6c3.6 0 6.5-2.9 6.5-6.5s-2.9-6.5-6.5-6.5z"></path><path fill="#4F5EDB" d="M706.1 739.4c10.4-5.6 20.8-9.5 31.2-14.2h-24.4c-8.9-11.4-26.6-21.3-52.5-29.4-9.5-3-19.8-5.6-30.8-7.8-1 4.4-1.7 8.5-2.3 12.8 45.3 9.3 74.3 24.2 78.8 38.6z"></path><g fill="#FFF"><path d="M721.5 752.6H719c-.6 0-1-.4-1-1s.4-1 1-1h2.5c.6 0 1 .4 1 1s-.4 1-1 1zM802.3 752.6h-5.4c-.6 0-1-.4-1-1s.4-1 1-1h5.4c.6 0 1 .4 1 1s-.5 1-1 1zm-16.2 0h-5.4c-.6 0-1-.4-1-1s.4-1 1-1h5.4c.6 0 1 .4 1 1s-.4 1-1 1zm-16.1 0h-5.4c-.6 0-1-.4-1-1s.4-1 1-1h5.4c.6 0 1 .4 1 1s-.5 1-1 1zm-16.2 0h-5.4c-.6 0-1-.4-1-1s.4-1 1-1h5.4c.6 0 1 .4 1 1s-.4 1-1 1zm-16.1 0h-5.4c-.6 0-1-.4-1-1s.4-1 1-1h5.4c.6 0 1 .4 1 1s-.5 1-1 1zM815.5 752.6H813c-.6 0-1-.4-1-1s.4-1 1-1h2.5c.6 0 1 .4 1 1s-.4 1-1 1z"></path></g><g fill="#FFF"><path d="M721 732.8h-2.5c-.6 0-1-.4-1-1s.4-1 1-1h2.5c.6 0 1 .4 1 1s-.4 1-1 1zM760.6 732.8h-4.4c-.6 0-1-.4-1-1s.4-1 1-1h4.4c.6 0 1 .4 1 1s-.4 1-1 1zm-13.2 0H743c-.6 0-1-.4-1-1s.4-1 1-1h4.4c.6 0 1 .4 1 1s-.4 1-1 1zm-13.2 0h-4.4c-.6 0-1-.4-1-1s.4-1 1-1h4.4c.6 0 1 .4 1 1s-.4 1-1 1zM771.9 732.8h-2.5c-.6 0-1-.4-1-1s.4-1 1-1h2.5c.6 0 1 .4 1 1s-.4 1-1 1z"></path></g><ellipse fill="none" stroke="#FFF" stroke-width="2" stroke-linecap="round" stroke-linejoin="round" stroke-dasharray="4.9881,9.9762" cx="526.5" cy="743.3" rx="186.6" ry="58.2"></ellipse><path fill="none" stroke="#1318C8" stroke-linecap="round" stroke-linejoin="round" stroke-miterlimit="10" d="M591.2 117.9v56.4"></path><g fill="#FFF" stroke="#1318C8" stroke-width="4" stroke-linecap="round" stroke-miterlimit="10"><path stroke-linejoin="round" d="M562.2 325.2v397.3c0 4.9 16.5 8.9 36.9 8.9s36.9-4 36.9-8.9V325.2h-73.8z"></path><ellipse cx="599.1" cy="326.5" rx="36.9" ry="8.9"></ellipse><path stroke-linejoin="round" d="M571.1 313.2V325c0 3.6 12.2 6.6 27.3 6.6 15.1 0 27.3-3 27.3-6.6v-11.8h-54.6z"></path><ellipse cx="598.3" cy="314.2" rx="27.3" ry="6.6"></ellipse><path stroke-linejoin="round" d="M562.2 274.6v39.3c0 4.9 16.5 8.9 36.9 8.9s36.9-4 36.9-8.9v-39.3h-73.8z"></path><ellipse cx="599.1" cy="275.9" rx="36.9" ry="8.9"></ellipse><path stroke-linejoin="round" d="M577.7 253.2v19.4c0 2.8 9.4 5.1 21.1 5.1 11.7 0 21.1-2.3 21.1-5.1v-19.4h-42.2z"></path><ellipse cx="598.8" cy="253.9" rx="21.1" ry="5.1"></ellipse><g stroke-linejoin="round"><path d="M585.8 174.8v78.4c0 .8 2.6 1.4 5.8 1.4 3.2 0 5.8-.6 5.8-1.4v-78.4h-11.6z"></path><ellipse cx="591.6" cy="175" rx="5.8" ry="1.4"></ellipse></g><g stroke-linejoin="round"><path d="M602.1 223.9v27.8c0 .5 1.6.9 3.5.9 2 0 3.5-.4 3.5-.9v-27.8h-7z"></path><ellipse cx="605.7" cy="224.1" rx="3.5" ry=".9"></ellipse></g><path d="M658.9 349l-19.7 53.7c-1.8 4.8-6.3 8-11.4 8v-60.5"></path><path stroke-linejoin="round" d="M627.5 350.9c2.3.1 4.8.1 7.4.1 21.3 0 41.8-2.2 45.7-5 1.5-1 .3-2.9.3-2.9s-18.5-2.1-31.8-2.1c-4.3 0-9.1.1-13.2.3 0 0 .7 3.5-1.8 6-1.2 1.2-6.6 2.1-6.6 2.1v1.5z"></path><path stroke-linejoin="round" d="M627.5 349.3c2.3.1 4.8.1 7.4.1 21.3 0 41.8-2.2 45.7-5s-10.1-5-31.4-5c-4.3 0-9.1.1-13.2.3 0 0 .7 3.5-1.8 6-2.4 2.4-6.7 3.6-6.7 3.6zM627.8 388.3c2.4.2 4.9.3 7.3.5 3.4.2 7.1.3 9.8-1.8"></path></g><path fill="#FFF" stroke="#1318C8" stroke-linecap="round" stroke-linejoin="round" stroke-miterlimit="10" d="M562.2 325.2v397.3c0 4.9 16.5 8.9 36.9 8.9s36.9-4 36.9-8.9V325.2h-73.8z"></path><ellipse fill="#FFF" stroke="#1318C8" stroke-width="2" stroke-linecap="round" stroke-miterlimit="10" cx="599.1" cy="326.5" rx="36.9" ry="8.9"></ellipse><path fill="#D7DBF9" d="M613 331.1s21.6-2.2 22.2-3.9c1-2.6-4.7-5.8-9.1-6.2-1.1-.1-.4 4.7-.4 4.7s-5.3 4.8-12.7 5.4z"></path><linearGradient id="footer-1_7_" gradientUnits="userSpaceOnUse" x1="571.065" y1="322.418" x2="625.599" y2="322.418"><stop offset="0" stop-color="#1318c8"></stop><stop offset=".207" stop-color="#6468dc"></stop><stop offset=".207" stop-color="#bdbff5"></stop><stop offset=".912" stop-color="#373bd1"></stop><stop offset="1" stop-color="#d7dbf9"></stop></linearGradient><path fill="url(#footer-1_7_)" stroke="#1318C8" stroke-linecap="round" stroke-linejoin="round" stroke-miterlimit="10" d="M571.1 313.2V325c0 3.6 12.2 6.6 27.3 6.6 15.1 0 27.3-3 27.3-6.6v-11.8h-54.6z"></path><path fill="#FFF" stroke="#1318C8" stroke-linecap="round" stroke-linejoin="round" stroke-miterlimit="10" d="M562.2 274.6v39.3c0 4.9 16.5 8.9 36.9 8.9s36.9-4 36.9-8.9v-39.3h-73.8z"></path><path fill="#D7DBF9" d="M597.3 322.3l1.8-37.5s19.5.2 25.9-2.1c6.4-2.3 11-6.8 11-6.8l.1 38.5s-2 4.8-17.1 7.1c-15.1 2.2-21.7.8-21.7.8z"></path><ellipse fill="#FFF" stroke="#1318C8" stroke-width="2" stroke-linecap="round" stroke-miterlimit="10" cx="599.1" cy="275.9" rx="36.9" ry="8.9"></ellipse><path fill="#D7DBF9" d="M609.4 277.4l22.7-5s-9.5-3.5-11.1-3.6c-1.5-.1-1 4.3-1 4.3l-10.6 4.3z"></path><linearGradient id="footer-1_8_" gradientUnits="userSpaceOnUse" x1="619.841" y1="263.662" x2="575.265" y2="266.284"><stop offset="0" stop-color="#d7dbf9"></stop><stop offset=".088" stop-color="#373bd1"></stop><stop offset=".579" stop-color="#9195e7"></stop><stop offset=".589" stop-color="#6468dc"></stop><stop offset="1" stop-color="#1318c8"></stop></linearGradient><path fill="url(#footer-1_8_)" stroke="#1318C8" stroke-linecap="round" stroke-linejoin="round" stroke-miterlimit="10" d="M577.7 253.2v19.4c0 2.8 9.4 5.1 21.1 5.1 11.7 0 21.1-2.3 21.1-5.1v-19.4h-42.2z"></path><path fill="#FFF" stroke="#1318C8" stroke-linecap="round" stroke-linejoin="round" stroke-miterlimit="10" d="M577.7 253.2v12.1c0 2.8 9.4 5.1 21.1 5.1 11.7 0 21.1-2.3 21.1-5.1v-12.1h-42.2z"></path><path fill="#D7DBF9" d="M604.6 259.1l-.7 11.1s8.3-.2 11.7-1.7c3.3-1.5 4.2-2.7 4.2-2.7v-10.6s-3.3 1.9-7.9 3-7.3.9-7.3.9z"></path><ellipse fill="#FFF" stroke="#1318C8" stroke-width="2" stroke-linecap="round" stroke-miterlimit="10" cx="598.8" cy="253.9" rx="21.1" ry="5.1"></ellipse><path fill="#D7DBF9" d="M593.3 255c.3-.1 10.1-1.7 10.1-1.7l2.9-.2 2.2-.3 6.3-1.9-5.2-1.2-.2 2-1.2.5-4.2.3-1.8-.8.1-1.9-4.7-.6v3.8l-2.7 1.3-1.6.7z"></path><path fill="#FFF" stroke="#1318C8" stroke-linecap="round" stroke-linejoin="round" stroke-miterlimit="10" d="M585.8 174.8v78.4c0 .8 2.6 1.4 5.8 1.4 3.2 0 5.8-.6 5.8-1.4v-78.4h-11.6z"></path><path fill="#D7DBF9" d="M592.4 176.6l.2 78 4.8-1 .6-78.1z"></path><ellipse fill="#FFF" stroke="#1318C8" stroke-linecap="round" stroke-linejoin="round" stroke-miterlimit="10" cx="591.6" cy="175" rx="5.8" ry="1.4"></ellipse><path fill="#FFF" stroke="#1318C8" stroke-linecap="round" stroke-linejoin="round" stroke-miterlimit="10" d="M602.1 223.9v27.8c0 .5 1.6.9 3.5.9 2 0 3.5-.4 3.5-.9v-27.8h-7z"></path><path fill="#D7DBF9" d="M606.9 225l.1 27.6 2.2-.8v-27.7z"></path><ellipse fill="#FFF" stroke="#1318C8" stroke-linecap="round" stroke-linejoin="round" stroke-miterlimit="10" cx="605.7" cy="224.1" rx="3.5" ry=".9"></ellipse><path fill="#FFF" stroke="#1318C8" stroke-linecap="round" stroke-miterlimit="10" d="M658.9 349l-19.7 53.7c-1.8 4.8-6.3 8-11.4 8v-60.5"></path><path fill="#FFF" stroke="#1318C8" stroke-linecap="round" stroke-linejoin="round" stroke-miterlimit="10" d="M627.5 350.9c2.3.1 4.8.1 7.4.1 21.3 0 41.8-2.2 45.7-5 1.5-1 .3-2.9.3-2.9s-18.5-2.1-31.8-2.1c-4.3 0-9.1.1-13.2.3 0 0 .7 3.5-1.8 6-1.2 1.2-6.6 2.1-6.6 2.1v1.5z"></path><path fill="#FFF" stroke="#1318C8" stroke-linecap="round" stroke-linejoin="round" stroke-miterlimit="10" d="M627.5 349.3c2.3.1 4.8.1 7.4.1 21.3 0 41.8-2.2 45.7-5s-10.1-5-31.4-5c-4.3 0-9.1.1-13.2.3 0 0 .7 3.5-1.8 6-2.4 2.4-6.7 3.6-6.7 3.6z"></path><path fill="#D7DBF9" d="M595.6 388.8l-.2-24.2c0-4 3.3-7.1 7.2-7 3.8.2 7.1-2.8 7.3-6.6l.8-15.8s10.7-1.3 16.3-2.7c6.3-1.6 8.9-6 8.9-6v13.2l17.1-.2s24.2-.6 27.5 3.1c2.6 2.9-.5 4.7-4.5 5.5-5.5 1.2-17 1.8-17 1.8s-11.9 32.2-14.3 38.2c-2.4 6.1-5.9 18.7-9.2 20.2.9 2.7.6 27.2.6 27.2l-.3 40.5 3 274.8-29.9 12.7-11.8-18.2-1.8-224.8.3-131.7z"></path><path fill="#FFF" d="M634.8 402.9s.6 3.7 3.1-3.5c2.5-7.1 15.6-46.4 15.6-46.4l-12.5.2-6.2 49.7zM680.6 342.7c-.3-.3-.7-.5-1.2-.2-4.7 2-9.9 2.8-15.1 3.3-1 .1-1.9.1-2.7.2-1.6.2-3.2.3-4.8.4-3.8.2-7.6 0-11.4.5h-.4c-.2 0-.3 0-.4.1-.6.1-1.2.2-1.7.3-.8.2-.9 1.2-.4 1.7-.1.4 0 .9.5 1.1 2.8 1.6 6.4.8 9.5.6 4.7-.3 9.3-.7 13.9-1.3 4-.5 8.3-1 12.2-2.2 2-.6 2.5-.9 2.9-3.1.1-1.2-.3-2-.9-1.4z"></path><path fill="#FFF" stroke="#1318C8" stroke-linecap="round" stroke-linejoin="round" stroke-miterlimit="10" d="M641.6 343.2l29.6-1.3s-12-7.2-19.7-6.9c-7.7.3-9.9 8.2-9.9 8.2z"></path><path fill="#D7DBF9" d="M650.9 334.8c-3.7.6-6.2 3.5-8.2 6.4-1 1.5 1.2 2.9 2.3 1.8.8-.1 1.6-.2 2.2-.6.6-.4.8-1.1 1.1-1.7.9-1.5 2.2-2.5 3.7-3.2 1.7-.7.5-2.9-1.1-2.7z"></path><path fill="none" stroke="#1318C8" stroke-linecap="round" stroke-linejoin="round" stroke-miterlimit="10" d="M636 339.4v-13.2M562.2 326.2v396.3c0 4.9 16.5 8.9 36.9 8.9s36.9-4 36.9-8.9v-315"></path><path fill="none" stroke="#1318C8" stroke-width="2" stroke-linecap="round" stroke-miterlimit="10" d="M626.3 320.5c6 1.6 9.7 3.7 9.7 6 0 4.9-16.5 8.9-36.9 8.9s-36.9-4-36.9-8.9c0-2.3 3.7-4.4 9.6-6"></path><g fill="none" stroke="#1318C8" stroke-linecap="round" stroke-miterlimit="10"><path stroke-linejoin="round" d="M571.1 320.2v4.8c0 3.6 12.2 6.6 27.3 6.6 15.1 0 27.3-3 27.3-6.6v-4.8"></path><path d="M573.9 320.7v6.9M578.6 321.7v7.8M585.4 322.5v8.3M593.6 323v7.8M605.2 323.1v7.7M613.5 322.5v8M619 321.5v7.8M622.7 320.8v6.8"></path></g><g fill="none" stroke="#1318C8" stroke-linecap="round" stroke-miterlimit="10"><path stroke-linejoin="round" d="M562.2 276.6v37.3c0 4.9 16.5 8.9 36.9 8.9s36.9-4 36.9-8.9v-37.3"></path><path stroke-width="2" d="M620.5 268.6c9.4 1.6 15.5 4.3 15.5 7.3 0 4.9-16.5 8.9-36.9 8.9s-36.9-4-36.9-8.9c0-2.9 5.5-5.4 14.1-7"></path></g><g fill="none" stroke="#1318C8" stroke-linecap="round" stroke-miterlimit="10"><path stroke-linejoin="round" d="M577.7 254.2v18.4c0 2.8 9.4 5.1 21.1 5.1 11.7 0 21.1-2.3 21.1-5.1v-18.4"></path><path stroke-linejoin="round" d="M577.7 254.2v11.1c0 2.8 9.4 5.1 21.1 5.1 11.7 0 21.1-2.3 21.1-5.1v-11.1"></path><path stroke-width="2" d="M597.9 248.9h3.5M609.8 249.6c6.3.9 10.1 2.5 10.1 4.4 0 2.8-9.4 5.1-21.1 5.1-11.7 0-21.1-2.3-21.1-5.1 0-1.6 2.5-2.9 7.4-3.9"></path></g><g fill="none" stroke="#1318C8" stroke-linecap="round" stroke-linejoin="round" stroke-miterlimit="10"><path d="M585.8 174.8v78.4c0 .8 2.6 1.4 5.8 1.4 3.2 0 5.8-.6 5.8-1.4v-78.4"></path><ellipse cx="591.6" cy="175" rx="5.8" ry="1.4"></ellipse></g><g fill="none" stroke="#1318C8" stroke-linecap="round" stroke-linejoin="round" stroke-miterlimit="10"><path d="M602.1 223.9v27.8c0 .5 1.6.9 3.5.9 2 0 3.5-.4 3.5-.9v-27.8"></path><ellipse cx="605.7" cy="224.1" rx="3.5" ry=".9"></ellipse></g><path fill="none" stroke="#1318C8" stroke-linecap="round" stroke-linejoin="round" stroke-miterlimit="10" d="M605.8 201.5v21.8"></path><path fill="none" stroke="#1318C8" stroke-linecap="round" stroke-miterlimit="10" d="M658.6 350.1l-19.4 52.7c-1.8 4.8-6.3 8-11.4 8v-60.5"></path><path fill="none" stroke="#1318C8" stroke-linecap="round" stroke-linejoin="round" stroke-miterlimit="10" d="M627.5 349.3v1.5c2.3.1 4.8.1 7.4.1 21.3 0 41.8-2.2 45.7-5 1.5-1 .6-2.8.6-2.8"></path><path fill="none" stroke="#1318C8" stroke-linecap="round" stroke-linejoin="round" stroke-miterlimit="10" d="M643.4 339.5c-2.6 0-5.1.1-7.4.2 0 0 .7 3.5-1.8 6-2.4 2.4-6.6 3.6-6.6 3.6 2.3.1 4.8.1 7.4.1 21.3 0 41.8-2.2 45.7-5 2.5-1.8-2.3-3.3-11.8-4.2"></path><path fill="none" stroke="#1318C8" stroke-linecap="round" stroke-linejoin="round" stroke-miterlimit="10" d="M641.6 343.2l29.6-1.3s-12-7.2-19.7-6.9c-7.7.3-9.9 8.2-9.9 8.2z"></path><path fill="none" stroke="#1318C8" stroke-linecap="round" stroke-linejoin="round" stroke-miterlimit="10" d="M655.7 339.2l8.7-4.7 11.6-.5M654 336.1l6.9-4.3 15.3-1M651.5 335.1c.7 1.6-.2 3.5-1.6 4.5-1.4 1-3.3 1.2-5 1.2-.7 0-1.4 0-2.1.1"></path><path fill="#FFF" stroke="#1318C8" stroke-linecap="round" stroke-linejoin="round" stroke-miterlimit="10" d="M647.8 342.9l-2.8 2.8M661.7 342.5c.6.8 1.1 1.6 1.7 2.4"></path><path fill="none" stroke="#1318C8" stroke-linecap="round" stroke-linejoin="round" stroke-miterlimit="10" d="M567.7 280.5c8.3 16 19.6 30.4 33.1 42.2M603.8 285.1c7.9 12.6 18.7 23.2 31.5 30.7M597.2 258.9c2.3 4 5.3 7.6 8.8 10.6M585.8 334.8c10.5 17.7 24.9 33 41.9 44.5M583.2 352.8c9.6 16.9 23.8 31.3 40.6 41M627.8 388.3c2.4.2 4.9.3 7.3.5 3.4.2 7.1.3 9.8-1.8"></path><g fill="#FFF" stroke="#1318C8" stroke-width="4" stroke-linecap="round" stroke-miterlimit="10"><path stroke-linejoin="round" d="M504.6 532.7v187.1c0 4.1 13.7 7.4 30.6 7.4 16.9 0 30.6-3.3 30.6-7.4V532.7h-61.2z"></path><path stroke-linejoin="round" d="M565.7 533.8c0 4.1-13.7 7.4-30.6 7.4-16.9 0-30.6-3.3-30.6-7.4M504.6 533.8c0-4.1 13.7-7.4 30.6-7.4 16.9 0 30.6 3.3 30.6 7.4"></path><path stroke-linejoin="round" d="M518 525.8v7c0 2.2 7.4 4 16.5 4s16.5-1.8 16.5-4v-7h-33z"></path><ellipse cx="534.5" cy="526.4" rx="16.5" ry="4"></ellipse><g stroke-linejoin="round"><path d="M524 507.6v18.3c0 1.3 4.7 2.3 10.5 2.3s10.5-1 10.5-2.3v-18.3h-21z"></path><ellipse cx="534.5" cy="508" rx="10.5" ry="2.3"></ellipse></g></g><path fill="#FFF" d="M504.6 532.7v187.1c0 4.1 13.7 7.4 30.6 7.4 16.9 0 30.6-3.3 30.6-7.4V532.7h-61.2z"></path><path fill="#D7DBF9" d="M504.7 588l3.4-6.1.4-5.8c.2-2.6 2.2-4.6 4.8-4.8l1.9-.1c2.1-.1 3.8-1.9 3.8-4l.1-27.2s20.6 1.6 22.9 1.6 6.8 29 6.8 29l-7.1 157.8-30.3-3.9-6.7-136.5z"></path><path fill="#FFF" d="M565.7 533.8c0 4.1-13.7 7.4-30.6 7.4-16.9 0-30.6-3.3-30.6-7.4M504.6 533.8c0-4.1 13.7-7.4 30.6-7.4 16.9 0 30.6 3.3 30.6 7.4"></path><linearGradient id="footer-1_9_" gradientUnits="userSpaceOnUse" x1="517.981" y1="531.274" x2="551.013" y2="531.274"><stop offset="0" stop-color="#1318c8"></stop><stop offset=".207" stop-color="#6468dc"></stop><stop offset=".207" stop-color="#bdbff5"></stop><stop offset=".912" stop-color="#373bd1"></stop><stop offset="1" stop-color="#d7dbf9"></stop></linearGradient><path fill="url(#footer-1_9_)" d="M518 525.8v7c0 2.2 7.4 4 16.5 4s16.5-1.8 16.5-4v-7h-33z"></path><ellipse fill="#FFF" cx="534.5" cy="526.4" rx="16.5" ry="4"></ellipse><g fill="#FFF"><path d="M524 507.6v18.3c0 1.3 4.7 2.3 10.5 2.3s10.5-1 10.5-2.3v-18.3h-21z"></path><ellipse cx="534.5" cy="508" rx="10.5" ry="2.3"></ellipse></g><path fill="none" stroke="#1318C8" stroke-linecap="round" stroke-linejoin="round" stroke-miterlimit="10" d="M504.6 533.7v186.1c0 4.1 13.7 7.4 30.6 7.4 16.9 0 30.6-3.3 30.6-7.4V533.7"></path><path fill="none" stroke="#1318C8" stroke-linecap="round" stroke-linejoin="round" stroke-miterlimit="10" d="M565.7 533.8c0 4.1-13.7 7.4-30.6 7.4-16.9 0-30.6-3.3-30.6-7.4M551.2 527.5c8.7 1.3 14.5 3.6 14.5 6.3M504.6 533.8c0-2.6 5.3-4.8 13.5-6.1"></path><g fill="none" stroke="#1318C8" stroke-linecap="round" stroke-miterlimit="10"><path stroke-linejoin="round" d="M518 526.8v6c0 2.2 7.4 4 16.5 4s16.5-1.8 16.5-4v-6"></path><path d="M545 523.3c3.7.7 6 1.8 6 3.1 0 2.2-7.4 4-16.5 4s-16.5-1.8-16.5-4c0-1.2 2.3-2.3 5.9-3.1"></path></g><g fill="none" stroke="#1318C8" stroke-linecap="round" stroke-linejoin="round" stroke-miterlimit="10"><path d="M524 508.6v17.3c0 1.3 4.7 2.3 10.5 2.3s10.5-1 10.5-2.3v-17.3"></path><ellipse cx="534.5" cy="508" rx="10.5" ry="2.3"></ellipse></g><path fill="none" stroke="#1318C8" stroke-linecap="round" stroke-linejoin="round" stroke-miterlimit="10" d="M530.3 472.1v34.6"></path><path fill="#FFF" stroke="#1318C8" stroke-width="4" stroke-linecap="round" stroke-linejoin="round" stroke-miterlimit="10" d="M617.6 481.5v252.3c0 2.7 9.2 5 20.5 5s20.5-2.2 20.5-5V481.5h-41z"></path><path fill="#FFF" stroke="#1318C8" stroke-width="4" stroke-linecap="round" stroke-miterlimit="10" d="M658.6 482.2c0 2.7-9.2 5-20.5 5s-20.5-2.2-20.5-5"></path><path fill="#FFF" stroke="#1318C8" stroke-width="4" stroke-linecap="round" stroke-linejoin="round" stroke-miterlimit="10" d="M617.6 482.2c0-2.7 9.2-5 20.5-5s20.5 2.2 20.5 5"></path><path fill="#FFF" d="M617.6 481.5v252.3c0 2.7 9.2 5 20.5 5s20.5-2.2 20.5-5V481.5h-41z"></path><path fill="#FFF" d="M658.6 482.2c0 2.7-9.2 5-20.5 5s-20.5-2.2-20.5-5M617.6 482.2c0-2.7 9.2-5 20.5-5s20.5 2.2 20.5 5"></path><path fill="#D7DBF9" d="M652.6 723.3l-12.8 15.6s-3.5.5-7.6.2c-10.9-.9-14.8-4.8-14.8-4.8s.7-240.9.3-246.5c-.4-5.6-1.4-5.6 5.2-8.9 4.1-2 22.5-2.4 25.2-1.1-2.7 1.5-17.5 8.9-17.5 8.9s.7 61.7.7 67.6 2.3 7.6 8.3 7.5c0 0 6.2.8 5.3-10.2-1-12.2-.5-64.8-.5-64.8s5.3.6 9.6-1.2 4.4-2.7 4.4-2.7l.3 26.4.3 35.7"></path><path fill="none" stroke="#1318C8" stroke-linecap="round" stroke-linejoin="round" stroke-miterlimit="10" d="M617.6 482.5v251.3c0 2.7 9.2 5 20.5 5s20.5-2.2 20.5-5V482.5"></path><path fill="none" stroke="#1318C8" stroke-linecap="round" stroke-miterlimit="10" d="M658.6 482.2c0 2.7-9.2 5-20.5 5s-20.5-2.2-20.5-5"></path><path fill="none" stroke="#1318C8" stroke-linecap="round" stroke-linejoin="round" stroke-miterlimit="10" d="M617.6 482.2c0-2.7 9.2-5 20.5-5s20.5 2.2 20.5 5"></path><linearGradient id="footer-1_10_" gradientUnits="userSpaceOnUse" x1="530.706" y1="754.242" x2="614.622" y2="754.242"><stop offset="0" stop-color="#1318c8"></stop><stop offset=".267" stop-color="#6468dc"></stop><stop offset=".267" stop-color="#bdbff5"></stop><stop offset=".912" stop-color="#373bd1"></stop><stop offset="1" stop-color="#d7dbf9"></stop></linearGradient><path fill="url(#footer-1_10_)" stroke="#1318C8" stroke-width="2" stroke-linecap="round" stroke-linejoin="round" stroke-miterlimit="10" d="M530.7 741v16.3c0 5.6 18.8 10.2 42 10.2s42-4.5 42-10.2V741h-84z"></path><ellipse fill="#1318C8" stroke="#1318C8" stroke-linecap="round" stroke-miterlimit="10" cx="572.7" cy="741" rx="42" ry="10.2"></ellipse><g stroke="#1318C8" stroke-width="4" stroke-linecap="round" stroke-miterlimit="10"><path fill="#FFF" stroke-linejoin="round" d="M535.8 567.2v172.3c0 4.9 16.5 8.9 36.9 8.9s36.9-4 36.9-8.9V567.2h-73.8z"></path><ellipse fill="#FFF" cx="572.7" cy="568.4" rx="36.9" ry="8.9"></ellipse><path fill="#FFF" stroke-linejoin="round" d="M544.6 555.1v11.8c0 3.6 12.2 6.6 27.3 6.6 15.1 0 27.3-3 27.3-6.6v-11.8h-54.6z"></path><ellipse fill="#FFF" cx="571.9" cy="556.1" rx="27.3" ry="6.6"></ellipse><path fill="none" d="M547.5 559v10.6M552.1 560.6v10.8M558.9 561.9v10.8M567.1 562.7v10M578.7 562.5v10.2M587.1 561.6v10.8M592.6 560.1v11.1M596.3 559v10.6"></path><g fill="#FFF"><path stroke-linejoin="round" d="M535.8 406.5v149.3c0 4.9 16.5 8.9 36.9 8.9s36.9-4 36.9-8.9V406.5h-73.8z"></path><ellipse cx="572.7" cy="407.8" rx="36.9" ry="8.9"></ellipse></g><g fill="#FFF"><path stroke-linejoin="round" d="M544.7 391.9v14.3c0 3.6 12.2 6.6 27.2 6.6s27.2-3 27.2-6.6v-14.3h-54.4z"></path><ellipse cx="571.9" cy="392.8" rx="27.2" ry="6.6"></ellipse></g><g fill="#FFF" stroke-linejoin="round"><path d="M569.2 361.7v29.7c0 1.2 4.1 2.2 9.2 2.2s9.2-1 9.2-2.2v-29.7h-18.4z"></path><ellipse cx="578.4" cy="362.1" rx="9.2" ry="2.2"></ellipse></g></g><path fill="#FFF" d="M535.8 567.2v172.3c0 4.9 16.5 8.9 36.9 8.9s36.9-4 36.9-8.9V567.2h-73.8z"></path><ellipse fill="#FFF" cx="572.7" cy="568.4" rx="36.9" ry="8.9"></ellipse><path fill="#D7DBF9" d="M586.2 747.4L583.1 577s10.7-.4 17-2.7c6.3-2.2 8.3-3.7 8.3-3.7l.9-1.7-19.9 3.2 9.9-5.3-.4-4.8 7 1.9 3.5 3.5.7 173.2c-.2.2-10.8 6.8-23.9 6.8z"></path><linearGradient id="footer-1_11_" gradientUnits="userSpaceOnUse" x1="544.62" y1="564.339" x2="599.154" y2="564.339"><stop offset="0" stop-color="#1318c8"></stop><stop offset=".207" stop-color="#6468dc"></stop><stop offset=".207" stop-color="#bdbff5"></stop><stop offset=".912" stop-color="#373bd1"></stop><stop offset="1" stop-color="#d7dbf9"></stop></linearGradient><path fill="url(#footer-1_11_)" d="M544.6 555.1v11.8c0 3.6 12.2 6.6 27.3 6.6 15.1 0 27.3-3 27.3-6.6v-11.8h-54.6z"></path><ellipse fill="#FFF" stroke="#1318C8" stroke-linecap="round" stroke-miterlimit="10" cx="571.9" cy="556.1" rx="27.3" ry="6.6"></ellipse><path fill="none" stroke="#1318C8" stroke-linecap="round" stroke-miterlimit="10" d="M547.5 559v10.6M552.1 560.6v10.8M558.9 561.9v10.8M567.1 562.7v10M578.7 562.5v10.2M587.1 561.6v10.8M592.6 560.1v11.1M596.3 559v10.6"></path><path fill="#FFF" d="M535.8 406.5v149.3c0 4.9 16.5 8.9 36.9 8.9s36.9-4 36.9-8.9V406.5h-73.8z"></path><path fill="#D7DBF9" d="M584.1 563.8l-.6-147.3s13.5-.6 16.7-2.2c3.2-1.6 9.9-6.3 9.9-6.3l-.4 148.4c.6 2-7.6 5.1-18.3 7.5-5.8.5-7.3-.1-7.3-.1z"></path><ellipse fill="#FFF" cx="572.7" cy="407.8" rx="36.9" ry="8.9"></ellipse><path fill="#D7DBF9" d="M596.6 409.2l11.2-3.9s-7.5-3.3-8.2-3.1c-.8.2-.3 4.7-.3 4.7l-2.7 2.3z"></path><linearGradient id="footer-1_12_" gradientUnits="userSpaceOnUse" x1="544.667" y1="402.351" x2="599.108" y2="402.351"><stop offset="0" stop-color="#1318c8"></stop><stop offset=".207" stop-color="#6468dc"></stop><stop offset=".207" stop-color="#bdbff5"></stop><stop offset=".912" stop-color="#373bd1"></stop><stop offset="1" stop-color="#d7dbf9"></stop></linearGradient><path fill="url(#footer-1_12_)" d="M544.7 391.9v14.3c0 3.6 12.2 6.6 27.2 6.6s27.2-3 27.2-6.6v-14.3h-54.4z"></path><path fill="#FFF" d="M544.7 391.9v8.3c0 3.6 12.2 6.6 27.2 6.6s27.2-3 27.2-6.6v-8.3h-54.4z"></path><path fill="#D7DBF9" d="M585.7 398.8l-4.5 7.3s9.8-.5 13.5-2.2c3.7-1.7 4.4-3.7 4.4-3.7l-.1-6.4s-1.1 1.9-3.9 2.8-9.4 2.2-9.4 2.2z"></path><ellipse fill="#FFF" cx="571.9" cy="392.8" rx="27.2" ry="6.6"></ellipse><path fill="#D7DBF9" d="M586.8 392.9l9-2.6s-6.7-3-8-2.8c-.1 1.3-1 5.4-1 5.4z"></path><path fill="#FFF" d="M569.2 361.7v29.7c0 1.2 4.1 2.2 9.2 2.2s9.2-1 9.2-2.2v-29.7h-18.4z"></path><path fill="#D7DBF9" d="M581.6 364.1l-.3 29.5s5.9-.3 6.4-1.8c-.2-1.7.3-29.1.3-29.1l-6.4 1.4z"></path><ellipse fill="#FFF" cx="578.4" cy="362.1" rx="9.2" ry="2.2"></ellipse><path fill="none" stroke="#1318C8" stroke-linecap="round" stroke-linejoin="round" stroke-miterlimit="10" d="M535.8 569.2v170.3c0 4.9 16.5 8.9 36.9 8.9s36.9-4 36.9-8.9V569.2"></path><path fill="none" stroke="#1318C8" stroke-linecap="round" stroke-miterlimit="10" d="M598.7 562.1c6.7 1.6 10.8 3.8 10.8 6.3 0 4.9-16.5 8.9-36.9 8.9s-36.9-4-36.9-8.9c0-2.3 3.6-4.4 9.4-6"></path><path fill="none" stroke="#1318C8" stroke-linecap="round" stroke-linejoin="round" stroke-miterlimit="10" d="M544.6 562.1v4.8c0 3.6 12.2 6.6 27.3 6.6 15.1 0 27.3-3 27.3-6.6v-4.8"></path><g fill="none" stroke="#1318C8" stroke-linecap="round" stroke-miterlimit="10"><path stroke-linejoin="round" d="M535.8 407.5v148.3c0 4.9 16.5 8.9 36.9 8.9s36.9-4 36.9-8.9V407.5"></path><path d="M598.7 401.5c6.7 1.6 10.8 3.8 10.8 6.3 0 4.9-16.5 8.9-36.9 8.9s-36.9-4-36.9-8.9c0-2.2 3.3-4.2 8.8-5.8"></path></g><g fill="none" stroke="#1318C8" stroke-linecap="round" stroke-miterlimit="10"><path stroke-linejoin="round" d="M544.7 392.9v13.3c0 3.6 12.2 6.6 27.2 6.6s27.2-3 27.2-6.6v-13.3"></path><path stroke-linejoin="round" d="M544.7 392.9v7.3c0 3.6 12.2 6.6 27.2 6.6s27.2-3 27.2-6.6v-7.3"></path><path d="M587.7 387.5c6.9 1.2 11.4 3.2 11.4 5.4 0 3.6-12.2 6.6-27.2 6.6s-27.2-3-27.2-6.6c0-3.4 10.7-6.2 24.5-6.6"></path></g><g fill="none" stroke="#1318C8" stroke-linecap="round" stroke-linejoin="round" stroke-miterlimit="10"><path d="M569.2 362.7v28.7c0 1.2 4.1 2.2 9.2 2.2s9.2-1 9.2-2.2v-28.7"></path><ellipse cx="578.4" cy="362.1" rx="9.2" ry="2.2"></ellipse></g><path fill="none" stroke="#1318C8" stroke-linecap="round" stroke-linejoin="round" stroke-miterlimit="10" d="M578.7 339.1v21.7"></path><ellipse fill="none" stroke="#1318C8" stroke-linecap="round" stroke-linejoin="round" stroke-miterlimit="10" cx="591.6" cy="154.6" rx="5" ry="1.2"></ellipse><ellipse fill="none" stroke="#1318C8" stroke-linecap="round" stroke-linejoin="round" stroke-miterlimit="10" cx="591.6" cy="140.5" rx="8.8" ry="2.1"></ellipse><ellipse fill="none" stroke="#1318C8" stroke-linecap="round" stroke-linejoin="round" stroke-miterlimit="10" cx="591.6" cy="129" rx="5.1" ry="1.2"></ellipse><g fill="#FFF" stroke="#1318C8" stroke-width="4" stroke-linecap="round" stroke-miterlimit="10"><path stroke-linejoin="round" d="M640.4 660.9v88.7c0 2.5 8.5 4.6 19 4.6s19-2.1 19-4.6v-88.7h-38z"></path><ellipse cx="659.4" cy="661.6" rx="19" ry="4.6"></ellipse><path stroke-linejoin="round" d="M644.9 643.7v16.1c0 1.9 6.3 3.4 14 3.4s14-1.5 14-3.4v-16.1h-28z"></path><ellipse cx="659" cy="644.2" rx="14" ry="3.4"></ellipse><path stroke-linejoin="round" d="M640.4 573.2V650c0 2.5 8.5 4.6 19 4.6s19-2.1 19-4.6v-76.8h-38z"></path><ellipse cx="659.4" cy="573.9" rx="19" ry="4.6"></ellipse><g><path stroke-linejoin="round" d="M649.7 546.9v25c0 1.2 4.1 2.2 9.2 2.2s9.2-1 9.2-2.2v-25h-18.4z"></path><ellipse cx="659" cy="547.3" rx="9.2" ry="2.2"></ellipse></g></g><path fill="#FFF" d="M640.4 661.9v87.7c0 2.5 8.5 4.6 19 4.6s19-2.1 19-4.6v-87.7h-38z"></path><path fill="#D7DBF9" d="M664.8 754.4l.1-88.5s5-.1 7.4-1c2.3-.8 5.4-1.1 6.2-3.4-.1 3.3 0 48.4 0 48.4l.1 39.9s-.2 1.8-4.7 2.9c-4.6 1.1-9.1 1.7-9.1 1.7z"></path><ellipse fill="#FFF" cx="659.4" cy="661.6" rx="19" ry="4.6"></ellipse><path fill="#D7DBF9" d="M667.2 662.9l10.5-2s-3.3-2.5-4-2.7c-.7-.1.5 1.7-1.1 2.5-1.6.9-5.4 2.2-5.4 2.2z"></path><linearGradient id="footer-1_13_" gradientUnits="userSpaceOnUse" x1="644.942" y1="653.447" x2="673.004" y2="653.447"><stop offset="0" stop-color="#1318c8"></stop><stop offset=".267" stop-color="#6468dc"></stop><stop offset=".267" stop-color="#bdbff5"></stop><stop offset=".912" stop-color="#373bd1"></stop><stop offset="1" stop-color="#d7dbf9"></stop></linearGradient><path fill="url(#footer-1_13_)" stroke="#1318C8" stroke-linecap="round" stroke-linejoin="round" stroke-miterlimit="10" d="M644.9 643.7v16.1c0 1.9 6.3 3.4 14 3.4s14-1.5 14-3.4v-16.1h-28z"></path><path fill="#FFF" d="M640.4 574.2V650c0 2.5 8.5 4.6 19 4.6s19-2.1 19-4.6v-75.8h-38z"></path><path fill="#D7DBF9" d="M664.8 654.4l.4-76s7-.2 9.7-1.8 3.5-2.1 3.5-2.1V650s-2.9 3.2-6.8 3.6c-4 .5-6.8.8-6.8.8z"></path><ellipse fill="#FFF" cx="659.4" cy="573.9" rx="19" ry="4.6"></ellipse><path fill="#D7DBF9" d="M664.6 573.9l10.6-1.9s-6.4-2.2-6.8-2.1-.4 2.6-.4 2.6l-3.4 1.4z"></path><linearGradient id="footer-1_14_" gradientUnits="userSpaceOnUse" x1="649.748" y1="560.534" x2="668.198" y2="560.534"><stop offset="0" stop-color="#1318c8"></stop><stop offset=".411" stop-color="#6468dc"></stop><stop offset=".421" stop-color="#9195e7"></stop><stop offset=".912" stop-color="#373bd1"></stop><stop offset="1" stop-color="#d7dbf9"></stop></linearGradient><path fill="url(#footer-1_14_)" stroke="#1318C8" stroke-linecap="round" stroke-linejoin="round" stroke-miterlimit="10" d="M649.7 546.9v25c0 1.2 4.1 2.2 9.2 2.2s9.2-1 9.2-2.2v-25h-18.4z"></path><path fill="#FFF" d="M649.7 546.9v19.3c0 1.2 4.1 2.2 9.2 2.2s9.2-1 9.2-2.2v-19.3h-18.4z"></path><path fill="#D7DBF9" d="M662.8 549.5l-.3 18.5s4.6 0 5.7-1.9c-.2-1.6-.1-18-.1-18l-5.3 1.4z"></path><ellipse fill="#FFF" cx="659" cy="547.3" rx="9.2" ry="2.2"></ellipse><path fill="none" stroke="#1318C8" stroke-linecap="round" stroke-linejoin="round" stroke-miterlimit="10" d="M640.4 661.9v87.7c0 2.5 8.5 4.6 19 4.6s19-2.1 19-4.6v-87.7"></path><path fill="none" stroke="#1318C8" stroke-linecap="round" stroke-miterlimit="10" d="M673.1 658.4c3.2.8 5.2 1.9 5.2 3.2 0 2.5-8.5 4.6-19 4.6s-19-2.1-19-4.6c0-1.1 1.7-2.2 4.5-3"></path><g fill="none" stroke="#1318C8" stroke-linecap="round" stroke-miterlimit="10"><path stroke-linejoin="round" d="M644.9 653v6.8c0 1.9 6.3 3.4 14 3.4s14-1.5 14-3.4v-6.5"></path><path d="M648.8 653.9v8.2M653.9 654.6v8.2M664.8 654.4v8.4M670.4 653.7v8"></path></g><g fill="none" stroke="#1318C8" stroke-linecap="round" stroke-miterlimit="10"><path stroke-linejoin="round" d="M644.8 653c3.5 1 8.7 1.6 14.5 1.6 10.5 0 19-2.1 19-4.6v-75.8M640.4 574.2V650c0 1.1 1.7 2.2 4.4 3"></path><path d="M668.3 569.9c6 .8 10 2.3 10 4.1 0 2.5-8.5 4.6-19 4.6s-19-2.1-19-4.6c0-1.7 3.7-3.1 9.2-3.9"></path></g><g stroke="#1318C8" stroke-linecap="round" stroke-miterlimit="10"><path fill="none" stroke-linejoin="round" d="M649.7 546.9v25c0 1.2 4.1 2.2 9.2 2.2s9.2-1 9.2-2.2v-25h-18.4z"></path><ellipse fill="#FFF" cx="659" cy="547.3" rx="9.2" ry="2.2"></ellipse></g><g fill="none" stroke="#1318C8" stroke-linecap="round" stroke-miterlimit="10"><path stroke-linejoin="round" d="M649.7 546.9v19.3c0 1.2 4.1 2.2 9.2 2.2s9.2-1 9.2-2.2v-19.3"></path><ellipse cx="659" cy="547.3" rx="9.2" ry="2.2"></ellipse></g><path fill="none" stroke="#1318C8" stroke-linecap="round" stroke-linejoin="round" stroke-miterlimit="10" d="M653.9 535v11.2M664.8 511.4v35.2M509.4 541c6.7 12.8 15.3 24.7 25.5 35M505.5 572.7c5 11.1 12.1 21.4 20.7 30.1 2.3 2.3 4.8 4.6 8 5.4"></path><path fill="#FFF" d="M810.2 732.3s38.3 2.2 46.5 23.7c-.3 2.9-5.8 4.7-13.3 4.8-13.3.2-31.3.2-31.3.2.6-8.3.7-16.6.2-24.9-.1-1.5-.6-3.5-2.1-3.8-1.3 2.8-2.3 7.6-2.8 14.9"></path><path fill="#D7DBF9" d="M812 761.1c4.2.1 50-11.6 31.1-19.6-12.9-5.5 5.7 2.6 5.7 2.6s4.4.9 8.5 1.4c5.1.6 16.4 4.2 8 9.8-2.2 1.5-8.1 5.6-14 5.7-16.2.2-39.3.1-39.3.1z"></path><path fill="none" stroke="#1318C8" stroke-width="3" stroke-linecap="round" stroke-linejoin="round" stroke-miterlimit="10" d="M810.2 732.3s38.3 2.2 46.5 23.7c-.3 2.9-5.8 4.7-13.3 4.8-13.3.2-31.3.2-31.3.2.6-8.3.7-16.6.2-24.9-.1-1.5-.6-3.5-2.1-3.8-1.3 2.8-2.3 7.6-2.8 14.9"></path><path fill="none" stroke="#1318C8" stroke-linecap="round" stroke-linejoin="round" stroke-miterlimit="10" d="M821.1 733.8c7.9 6.8 13 16.6 14.1 26.9M837.5 739.2c5.6 5.1 9.6 11.9 11.4 19.3"></path><path fill="#FFF" stroke="#1318C8" stroke-linecap="round" stroke-linejoin="round" stroke-miterlimit="10" d="M816 736.4c.2 1.4.4 2.8.6 4.3M816.7 745.6c.3 1.2.4 2.4.2 3.6M817.3 753.4v3.6"></path><path fill="#1318C8" d="M754.5 711.9h-.3c-2.2 2.3-4 9.3-4.6 15.5l8.5.2s.3-8.1-1.8-12c-1.1-2.4-1.6-3.3-1.8-3.7z"></path><path fill="#FFF" d="M755.4 711.3c0 .1-.1.1-.1.2 0 0-.1.1-.2.1 4.5 4.9 3.4 19.9 3.8 28.5 0 0 15.8 0 29-.2 7.5-.1 13-2 13.3-4.8-7.6-20-41-23.4-45.8-23.8z"></path><path fill="#D7DBF9" d="M797.5 728.4c-.7-1-1.9-.9-2.6 0-3.8 5-10.6 5.5-16.4 6.1-6 .5-12 .7-18 .7-1.1 0-1.6 1-1.4 1.8-1.2.7-.8 2.6.8 2.8 10.5 1.1 21.9 2.3 32.3.6 2.6-.4 7.3-1 8.7-3.7 1.4-2.9-1.9-6.1-3.4-8.3z"></path><path fill="none" stroke="#1318C8" stroke-width="3" stroke-linecap="round" stroke-linejoin="round" stroke-miterlimit="10" d="M754.8 711.3s38.3 2.2 46.5 23.7c-.3 2.9-5.8 4.7-13.3 4.8-13.3.2-29 .2-29 .2-.5-8.7.6-24.2-4.2-28.7-2.5 1.7-4.3 8.1-4.9 14.9"></path><path fill="none" stroke="#1318C8" stroke-linecap="round" stroke-linejoin="round" stroke-miterlimit="10" d="M765.7 712.8c7.9 6.8 13 16.6 14.1 26.9M782.1 718.2c5.6 5.1 9.6 11.9 11.4 19.3"></path><path fill="#FFF" stroke="#1318C8" stroke-linecap="round" stroke-linejoin="round" stroke-miterlimit="10" d="M762.4 715.4c.2 1.4.4 2.8.6 4.3M763.1 724.6c.3 1.2.4 2.4.2 3.6M763.6 732.5v3.6M759.9 696c-.3 5.3-.1 10.7.6 16M765.5 707.7c-.3 4.3-.2 8.7.3 13"></path><path fill="#FFF" d="M287.2 750.7h-94.7c-7.3 0-14.4-1.6-21-4.6 6.7-12.9 20-20.9 34.5-20.8l76.7.7c6.3 4.9 4.5 24.7 4.5 24.7z"></path><path fill="#D7DBF9" d="M299.4 733.7l-4.7-.1s-7.8-.5-7.4 1c-.2.4-.4.9-.3 1.4.1 1.3.2 2.6.5 3.9 0 .9.2 1.9.7 2.9-36.7 1.9-73.5 3.6-110.2.8-.8-.1-1.4.2-1.9.5-2.8-1.6-6.1 2.6-3.5 4.8 2 1.7 4.1 2.5 6.4 3.1 3.9 1.2 8 1.5 12.2 1.7 2.1.1 4.1.2 6.2.3 2.8.2 5.6.5 8.4.7 13.3 1 26.7 1.6 40 1.8 12.3.2 24.9.7 37.1-1.3 3.8-.6 10.7-.2 14.5-2 3.1-1 3.8-1.8 5.3-5 3.3-7.7-3.3-14.5-3.3-14.5z"></path><g><path fill="#4F5EDB" d="M300.2 734.5h-13c.8 4.3 1.4 8.6 1.4 13H303c1.8-4-.9-8.9-2.8-13z"></path><path fill="#96A0ED" d="M334.4 734.5h-34.2c1.9 4 4.6 8.9 2.8 13h31.4c3.6 0 6.5-2.9 6.5-6.5s-2.9-6.5-6.5-6.5z"></path><g fill="#FFF"><path d="M321.2 740h-5.4c-.6 0-1 .4-1 1s.4 1 1 1h5.4c.6 0 1-.4 1-1s-.5-1-1-1zM299.6 740c-.6 0-1 .4-1 1s.4 1 1 1h3.6c-.2-.7-.4-1.3-.6-2h-3zM305 740h-2.3c.2.7.4 1.3.6 2h1.7c.6 0 1-.4 1-1s-.4-1-1-1zM334.4 742h-2.5c-.6 0-1-.4-1-1s.4-1 1-1h2.5c.6 0 1 .4 1 1s-.4 1-1 1z"></path></g></g><path fill="none" stroke="#1318C8" stroke-width="3" stroke-linecap="round" stroke-linejoin="round" stroke-miterlimit="10" d="M287.2 750.7h-94.7c-7.3 0-14.4-1.6-21-4.6 6.7-12.9 20-20.9 34.5-20.8l76.7.7c6.3 4.9 4.5 24.7 4.5 24.7z"></path><path fill="none" stroke="#1318C8" stroke-width="2" stroke-linecap="round" stroke-linejoin="round" stroke-miterlimit="10" d="M278.6 742.1c1.4 4.9 2.2 10.1 2.3 15.2M253.7 741.3c1.7 5 2.7 10.3 2.8 15.7M228 743.1c2 4.4 2.7 9.4 2.1 14.2M198.2 741.8c1.6 4.8 2.3 9.9 1.9 14.9"></path><path fill="none" stroke="#1318C8" stroke-linecap="round" stroke-linejoin="round" stroke-miterlimit="10" d="M190.6 728.6c9.9 6.2 16.5 10.6 21.7 21.1M207.7 725.5c11 5.1 20.5 13.4 27.2 23.5M274.7 749.6c-.1-4.6-2.7-8.7-5.5-12.3-4.8-5.9-11.1-11.4-18.7-12.1"></path><g><ellipse fill="#1318C8" stroke="#1318C8" stroke-linecap="round" stroke-miterlimit="10" cx="486.5" cy="719.1" rx="34.8" ry="8.4"></ellipse><linearGradient id="footer-1_15_" gradientUnits="userSpaceOnUse" x1="451.688" y1="730.074" x2="521.226" y2="730.074"><stop offset="0" stop-color="#1318c8"></stop><stop offset=".207" stop-color="#6468dc"></stop><stop offset=".207" stop-color="#bdbff5"></stop><stop offset=".912" stop-color="#373bd1"></stop><stop offset="1" stop-color="#d7dbf9"></stop></linearGradient><path fill="url(#footer-1_15_)" stroke="#1318C8" stroke-width="2" stroke-linecap="round" stroke-linejoin="round" stroke-miterlimit="10" d="M451.7 719.1v13.5c0 4.7 15.6 8.4 34.8 8.4 19.2 0 34.8-3.8 34.8-8.4v-13.5h-69.6z"></path></g><g><path fill="#FFF" stroke="#1318C8" stroke-width="4" stroke-linecap="round" stroke-linejoin="round" stroke-miterlimit="10" d="M418.2 719.6l8.3 16.3h29c.4-6.1-.7-11.8-4.1-16.6l-33.2.3zM421.8 733.4l-3.6-13.8 8.2 16.3zM455.9 603.3v114.5c0 4.1 13.7 7.4 30.6 7.4 16.9 0 30.6-3.3 30.6-7.4V603.3h-61.2z"></path><path fill="#FFF" stroke="#1318C8" stroke-width="4" stroke-linecap="round" stroke-linejoin="round" stroke-miterlimit="10" d="M517 604.4c0 4.1-13.7 7.4-30.6 7.4-16.9 0-30.6-3.3-30.6-7.4M455.9 604.4c0-4.1 13.7-7.4 30.6-7.4 16.9 0 30.6 3.3 30.6 7.4"></path><linearGradient id="footer-1_16_" gradientUnits="userSpaceOnUse" x1="466.883" y1="597.687" x2="504.744" y2="597.687"><stop offset="0" stop-color="#d7dbf9"></stop><stop offset=".088" stop-color="#373bd1"></stop><stop offset=".579" stop-color="#9195e7"></stop><stop offset=".589" stop-color="#6468dc"></stop><stop offset="1" stop-color="#1318c8"></stop></linearGradient><path fill="url(#footer-1_16_)" stroke="#1318C8" stroke-width="4" stroke-linecap="round" stroke-linejoin="round" stroke-miterlimit="10" d="M466.9 588v14.8c0 2.5 8.5 4.6 18.9 4.6 10.5 0 18.9-2.1 18.9-4.6V588h-37.8z"></path><ellipse fill="#FFF" stroke="#1318C8" stroke-width="4" stroke-linecap="round" stroke-miterlimit="10" cx="485.8" cy="588.6" rx="18.9" ry="4.6"></ellipse><path fill="#FFF" stroke="#1318C8" stroke-width="4" stroke-linecap="round" stroke-linejoin="round" stroke-miterlimit="10" d="M472.7 577.4v10.2c0 1.7 5.9 3.2 13.1 3.2 7.2 0 13.1-1.4 13.1-3.2v-10.2h-26.2z"></path><ellipse fill="#FFF" stroke="#1318C8" stroke-width="4" stroke-linecap="round" stroke-linejoin="round" stroke-miterlimit="10" cx="485.8" cy="577.8" rx="13.1" ry="3.2"></ellipse></g><path fill="#FFF" stroke="#1318C8" stroke-linecap="round" stroke-linejoin="round" stroke-miterlimit="10" d="M418.2 719.6l8.3 16.3h29c.4-6.1-.7-11.8-4.1-16.6l-33.2.3z"></path><path fill="#D7DBF9" d="M423.8 730.5s23-.2 26.2-5.1c3.2-4.9 1.2-6 1.2-6l5.2 10.5-1.3 7.2-28.7-1.2-4.6-2.3-4-13.3 6 10.2z"></path><path fill="none" stroke="#1318C8" stroke-linecap="round" stroke-linejoin="round" stroke-miterlimit="10" d="M421.8 733.4l-3.6-13.8 8.2 16.3z"></path><path fill="#FFF" d="M517 640.2v-36.9h-61.1v114.5c0 4.1 13.7 7.4 30.6 7.4 16.9 0 30.6-3.3 30.6-7.4v-77.6"></path><path fill="#D7DBF9" d="M482.3 612.2l-1.3 98.6s10.2-3.4 18-3.1c7.8.3 18.4 1.8 18.4 1.8l-.3-104.2s-3.9 4.5-13.6 5.5c-9.7 1.1-21.2 1.4-21.2 1.4zM490 581.2s-.3 9.3.6 9.4c.9.1 5-.9 5-.9l7.7-2.1-4.3-2.6-.3-6.5s-3.3 1.6-4.9 2-3.8.7-3.8.7z"></path><path fill="#FFF" d="M517 604.4c0 4.1-13.7 7.4-30.6 7.4-16.9 0-30.6-3.3-30.6-7.4M455.9 604.4c0-4.1 13.7-7.4 30.6-7.4 16.9 0 30.6 3.3 30.6 7.4"></path><linearGradient id="footer-1_17_" gradientUnits="userSpaceOnUse" x1="466.883" y1="597.687" x2="504.744" y2="597.687"><stop offset="0" stop-color="#1318c8"></stop><stop offset=".207" stop-color="#6468dc"></stop><stop offset=".207" stop-color="#bdbff5"></stop><stop offset=".912" stop-color="#373bd1"></stop><stop offset="1" stop-color="#d7dbf9"></stop></linearGradient><path fill="url(#footer-1_17_)" d="M466.9 588v14.8c0 2.5 8.5 4.6 18.9 4.6 10.5 0 18.9-2.1 18.9-4.6V588h-37.8z"></path><path fill="#FFF" d="M466.9 588v10.8c0 2.5 8.5 4.6 18.9 4.6 10.5 0 18.9-2.1 18.9-4.6V588h-37.8z"></path><path fill="#D7DBF9" d="M498.6 592.8l-5.2 9.9 10.9-2.9.6 3.5-2.9 2.4 12.8-4-9.6-3.6c-1.2.2-.3-8.7-.3-8.7s-1.6 1.8-3 2.1-3.3 1.3-3.3 1.3z"></path><ellipse fill="#FFF" cx="485.8" cy="588.6" rx="18.9" ry="4.6"></ellipse><path fill="#FFF" stroke="#1318C8" stroke-linecap="round" stroke-linejoin="round" stroke-miterlimit="10" d="M472.7 577.8v9.8c0 1.7 5.9 3.2 13.1 3.2 7.2 0 13.1-1.4 13.1-3.2v-9.8"></path><path fill="#D7DBF9" d="M493.4 580.6l-6.5 10 7.9-.7 7.9-3-4-1.8v-6.4l-3.1 1.3z"></path><ellipse fill="#FFF" cx="485.8" cy="577.8" rx="13.1" ry="3.2"></ellipse><path fill="none" stroke="#1318C8" stroke-linecap="round" stroke-linejoin="round" stroke-miterlimit="10" d="M455.9 603.3v114.5c0 4.1 13.7 7.4 30.6 7.4 16.9 0 30.6-3.3 30.6-7.4v-77.6M517 640.2v-36.9"></path><path fill="none" stroke="#1318C8" stroke-linecap="round" stroke-linejoin="round" stroke-miterlimit="10" d="M517 604.4c0 4.1-13.7 7.4-30.6 7.4-16.9 0-30.6-3.3-30.6-7.4M504.8 598.5c7.4 1.4 12.2 3.5 12.2 5.9M455.9 604.4c0-2.3 4.2-4.3 11-5.6"></path><path fill="none" stroke="#1318C8" stroke-linecap="round" stroke-linejoin="round" stroke-miterlimit="10" d="M466.9 589v13.8c0 2.5 8.5 4.6 18.9 4.6 10.5 0 18.9-2.1 18.9-4.6V589"></path><path fill="none" stroke="#1318C8" stroke-linecap="round" stroke-linejoin="round" stroke-miterlimit="10" d="M466.9 588.8v10c0 2.5 8.5 4.6 18.9 4.6 10.5 0 18.9-2.1 18.9-4.6V588"></path><path fill="none" stroke="#1318C8" stroke-linecap="round" stroke-miterlimit="10" d="M499.1 585.4c3.5.8 5.7 2 5.7 3.3 0 2.5-8.5 4.6-18.9 4.6s-18.9-2.1-18.9-4.6c0-1.3 2.3-2.5 6-3.3"></path><path fill="none" stroke="#1318C8" stroke-linecap="round" stroke-linejoin="round" stroke-miterlimit="10" d="M472.7 577.8v9.8c0 1.7 5.9 3.2 13.1 3.2 7.2 0 13.1-1.4 13.1-3.2v-9.8"></path><ellipse fill="none" stroke="#1318C8" stroke-linecap="round" stroke-linejoin="round" stroke-miterlimit="10" cx="485.8" cy="577.8" rx="13.1" ry="3.2"></ellipse><path fill="none" stroke="#1318C8" stroke-linecap="round" stroke-linejoin="round" stroke-miterlimit="10" d="M490 504.5v72.9M481.6 542.8v34.6M428.3 719.5c1.9.7 3.3 2.3 4.5 3.9 2.3 3 4.2 6.3 5.7 9.8"></path><path fill="none" stroke="#96A0ED" stroke-width="7" stroke-linecap="round" stroke-linejoin="round" stroke-miterlimit="10" d="M414.5 742l10.6 7.8h51.7"></path><path fill="none" stroke="#1318C8" stroke-linecap="round" stroke-linejoin="round" stroke-miterlimit="10" d="M443 722.4c1.8.8 3 2.6 4 4.3 1.6 2.9 2.9 5.9 3.7 9.1"></path><g stroke="#1318C8" stroke-width="4" stroke-linecap="round" stroke-miterlimit="10"><g fill="#1318C8"><ellipse cx="503.1" cy="762.6" rx="27.6" ry="6.7"></ellipse><path stroke-linejoin="round" d="M475.5 762.6v10.8c0 3.7 12.4 6.7 27.6 6.7 15.3 0 27.6-3 27.6-6.7v-10.8h-55.2z"></path></g><path fill="#FFF" stroke-linejoin="round" d="M478.8 713.3v48.3c0 3.2 10.9 5.9 24.3 5.9s24.3-2.6 24.3-5.9v-48.3h-48.6z"></path><ellipse fill="#FFF" cx="503.1" cy="714.2" rx="24.3" ry="5.9"></ellipse></g><g><ellipse fill="#1318C8" stroke="#1318C8" stroke-linecap="round" stroke-miterlimit="10" cx="503.1" cy="762.6" rx="27.6" ry="6.7"></ellipse><linearGradient id="footer-1_18_" gradientUnits="userSpaceOnUse" x1="475.474" y1="771.338" x2="530.705" y2="771.338"><stop offset="0" stop-color="#1318c8"></stop><stop offset=".207" stop-color="#6468dc"></stop><stop offset=".207" stop-color="#bdbff5"></stop><stop offset=".912" stop-color="#373bd1"></stop><stop offset="1" stop-color="#d7dbf9"></stop></linearGradient><path fill="url(#footer-1_18_)" stroke="#1318C8" stroke-linecap="round" stroke-linejoin="round" stroke-miterlimit="10" d="M475.5 762.6v10.8c0 3.7 12.4 6.7 27.6 6.7 15.3 0 27.6-3 27.6-6.7v-10.8h-55.2z"></path></g><path fill="#FFF" stroke="#1318C8" stroke-linecap="round" stroke-linejoin="round" stroke-miterlimit="10" d="M478.8 713.3v48.3c0 3.2 10.9 5.9 24.3 5.9s24.3-2.6 24.3-5.9v-48.3h-48.6z"></path><path fill="#D7DBF9" d="M502.5 767c4.7.1 9.2.4 13.9-.5 2.9-.5 7.3-1.3 10.4-3v-.1c.4-.8.6-1.6.9-2.3-.1-1.2-.1-2.4-.1-3.7-.2-9.6-.6-19.5-.2-29.1v-.2c.1-4 .1-8 .1-12v-.3c-2 1-4.2 1.6-6.3 2.5-.2.1-.5.2-.7.2-.7.3-1.4.5-2.1.7-.2.1-.5.1-.7.1-3.6 1-7.3 1.4-11.1 1h-.3c-.1-.1-.1-.2-.2-.2-1.6.2-3.2.4-4.9.5-.2.4-.4.9-.4 1.5-.1 14.4.2 28.7.9 43.1.1.5.4 1.2.8 1.8z"></path><ellipse fill="#FFF" stroke="#1318C8" stroke-linecap="round" stroke-miterlimit="10" cx="503.1" cy="714.2" rx="24.3" ry="5.9"></ellipse><path fill="none" stroke="#1318C8" stroke-linecap="round" stroke-linejoin="round" stroke-miterlimit="10" d="M478.8 714.1v47.5c0 3.2 10.9 5.9 24.3 5.9s24.3-2.6 24.3-5.9v-47.5"></path><ellipse fill="none" stroke="#1318C8" stroke-linecap="round" stroke-miterlimit="10" cx="503.1" cy="714.2" rx="24.3" ry="5.9"></ellipse><path fill="none" stroke="#FFF" stroke-width="2" stroke-linecap="round" stroke-linejoin="round" stroke-miterlimit="10" d="M478.4 765.7c4.3 2.5 9.2 3.9 14.2 4M530.2 764.4c-4.2 2.9-9.1 4.7-14.2 5.1M512 770.2c-1.4.1-2.9.3-4.3.4M499.5 771c-.8.1-1.5.2-2.3.3M533.1 743.9c2.7 1.9 5.8 3.5 8.9 4.6M552.5 750.7c7.3 1.5 14.7 2.1 22.1 1.7M593.2 751c-4.1 1.4-8.5 2-12.9 1.8M614 741c-1.6 2.4-3.6 4.6-6.1 6.1"></path><path fill="none" stroke="#FFF" stroke-linecap="round" stroke-linejoin="round" stroke-miterlimit="10" d="M604 748.9c-1.5.5-3.1 1-4.6 1.6M537.8 751.4V764M549.1 755.6v10.9M559.2 760.2v7.6M584.8 756.9v11.3M610.9 748.5v13M605.9 752.7v10.9M478.4 769.5v7.1M484.5 772.8v6.8M528.1 769.1v7.5M523.9 771.2v7.9M514.7 775.4v4.6M495.7 775.8v4.2"></path><use xlink:href="#footer-1_tree1" width="13.3" height="56" x="-6.8" y="-21.7" transform="matrix(.7133 0 0 -.7133 490.33 698.73)" overflow="visible"></use><path fill="#FFF" stroke="#1318C8" stroke-linecap="round" stroke-linejoin="round" stroke-miterlimit="10" d="M577 401.6c-1.4 1.8-2.9 3.6-4.5 5.2"></path><path fill="none" stroke="#1318C8" stroke-linecap="round" stroke-linejoin="round" stroke-miterlimit="10" d="M595.6 398.2c-1.1 2.2-2.4 4.4-4 6.3"></path><g><g stroke="#1318C8" stroke-width="2" stroke-linecap="round" stroke-linejoin="round" stroke-miterlimit="10"><path fill="none" d="M695.3 660.1v8.2"></path><ellipse fill="#D7DBF9" cx="695.2" cy="645.4" rx="4.1" ry="12.7"></ellipse></g><g stroke="#1318C8" stroke-width="2" stroke-linecap="round" stroke-linejoin="round" stroke-miterlimit="10"><path fill="none" d="M721 676.3v8.9"></path><ellipse fill="#D7DBF9" cx="720.9" cy="660.4" rx="4.5" ry="13.8"></ellipse></g><g stroke="#1318C8" stroke-width="2" stroke-linecap="round" stroke-linejoin="round" stroke-miterlimit="10"><path fill="none" d="M703.4 701.7v9.2"></path><ellipse fill="#D7DBF9" cx="703.3" cy="685.3" rx="4.6" ry="14.2"></ellipse></g><g stroke="#1318C8" stroke-width="2" stroke-linecap="round" stroke-linejoin="round" stroke-miterlimit="10"><path fill="none" d="M745.5 691.5V702"></path><ellipse fill="#D7DBF9" cx="745.4" cy="672.7" rx="5.3" ry="16.3"></ellipse></g><use xlink:href="#footer-1_tree1" width="13.3" height="56" x="-6.8" y="-21.7" transform="matrix(.9284 0 0 -.8361 811.906 707.514)" overflow="visible"></use><use xlink:href="#footer-1_tree1" width="13.3" height="56" x="-6.8" y="-21.7" transform="matrix(.7289 0 0 -.6564 792.969 691.791)" overflow="visible"></use><use xlink:href="#footer-1_tree1" width="13.3" height="56" x="-6.8" y="-21.7" transform="matrix(.7989 0 0 -.7195 874.374 748.352)" overflow="visible"></use><use xlink:href="#footer-1_tree1" width="13.3" height="56" x="-6.8" y="-21.7" transform="matrix(.8047 0 0 -.7247 723.996 799.511)" overflow="visible"></use><use xlink:href="#footer-1_tree1" width="13.3" height="56" x="-6.8" y="-21.7" transform="matrix(1.2249 0 0 -1.1031 663.51 809.829)" overflow="visible"></use><use xlink:href="#footer-1_tree1" width="13.3" height="56" x="-6.8" y="-21.7" transform="matrix(.871 0 0 -.7844 420.465 812.304)" overflow="visible"></use><use xlink:href="#footer-1_tree1" width="13.3" height="56" x="-6.8" y="-21.7" transform="matrix(1.1773 0 0 -1.0603 342.52 814.376)" overflow="visible"></use><use xlink:href="#footer-1_tree1" width="13.3" height="56" x="-6.8" y="-21.7" transform="matrix(.8022 0 0 -.7224 371.875 810.759)" overflow="visible"></use><use xlink:href="#footer-1_tree1" width="13.3" height="56" x="-6.8" y="-21.7" transform="matrix(1.0526 0 0 -.948 286.913 787.924)" overflow="visible"></use><use xlink:href="#footer-1_tree1" width="13.3" height="56" x="-6.8" y="-21.7" transform="matrix(.6858 0 0 -.6176 325.341 798.178)" overflow="visible"></use><use xlink:href="#footer-1_tree1" width="13.3" height="56" x="-6.8" y="-21.7" transform="matrix(.7445 0 0 -.6705 399.868 804.636)" overflow="visible"></use><use xlink:href="#footer-1_tree1" width="13.3" height="56" x="-6.8" y="-21.7" transform="matrix(.5766 0 0 -.5192 258.339 691.789)" overflow="visible"></use><use xlink:href="#footer-1_tree1" width="13.3" height="56" x="-6.8" y="-21.7" transform="matrix(.7922 0 0 -.7134 299.205 690.412)" overflow="visible"></use><use xlink:href="#footer-1_tree1" width="13.3" height="56" x="-6.8" y="-21.7" transform="matrix(.7944 0 0 -.7154 346.907 691.986)" overflow="visible"></use><use xlink:href="#footer-1_tree1" width="13.3" height="56" x="-6.8" y="-21.7" transform="matrix(.5921 0 0 -.5332 366.976 659.79)" overflow="visible"></use><use xlink:href="#footer-1_tree1" width="13.3" height="56" x="-6.8" y="-21.7" transform="matrix(.679 0 0 -.6115 314.061 703.507)" overflow="visible"></use><use xlink:href="#footer-1_tree1" width="13.3" height="56" x="-6.8" y="-21.7" transform="matrix(.7002 0 0 -.6306 391.687 665.38)" overflow="visible"></use><use xlink:href="#footer-1_tree1" width="13.3" height="56" x="-6.8" y="-21.7" transform="matrix(.5444 0 0 -.4902 319.376 654.268)" overflow="visible"></use><use xlink:href="#footer-1_tree1" width="13.3" height="56" x="-6.8" y="-21.7" transform="matrix(.7851 0 0 -.707 374.532 684.687)" overflow="visible"></use><use xlink:href="#footer-1_tree1" width="13.3" height="56" x="-6.8" y="-21.7" transform="matrix(.6443 0 0 -.5802 328.217 664.559)" overflow="visible"></use><use xlink:href="#footer-1_tree1" width="13.3" height="56" x="-6.8" y="-21.7" transform="matrix(.8912 0 0 -.8025 243.24 706.748)" overflow="visible"></use><use xlink:href="#footer-1_tree1" width="13.3" height="56" x="-6.8" y="-21.7" transform="matrix(.927 0 0 -.8348 609.151 814.26)" overflow="visible"></use><use xlink:href="#footer-1_tree1" width="13.3" height="56" x="-6.8" y="-21.7" transform="matrix(.927 0 0 -.8348 605.498 768.208)" overflow="visible"></use><use xlink:href="#footer-1_tree1" width="13.3" height="56" x="-6.8" y="-21.7" transform="matrix(.927 0 0 -.8348 541.878 767.071)" overflow="visible"></use><use xlink:href="#footer-1_tree1" width="13.3" height="56" x="-6.8" y="-21.7" transform="matrix(.927 0 0 -.8348 588.272 764.393)" overflow="visible"></use><use xlink:href="#footer-1_tree1" width="13.3" height="56" x="-6.8" y="-21.7" transform="matrix(.927 0 0 -.8348 629.63 755.688)" overflow="visible"></use><use xlink:href="#footer-1_tree1" width="13.3" height="56" x="-6.8" y="-21.7" transform="matrix(.7064 0 0 -.6361 699.987 773.503)" overflow="visible"></use><use xlink:href="#footer-1_tree1" width="13.3" height="56" x="-6.8" y="-21.7" transform="matrix(.753 0 0 -.6782 404.72 748.803)" overflow="visible"></use><use xlink:href="#footer-1_tree1" width="13.3" height="56" x="-6.8" y="-21.7" transform="matrix(.8193 0 0 -.7379 386.257 751.492)" overflow="visible"></use><use xlink:href="#footer-1_tree1" width="13.3" height="56" x="-6.8" y="-21.7" transform="matrix(.7823 0 0 -.7045 444.045 748.68)" overflow="visible"></use></g><path fill="none" stroke="#1318C8" stroke-linecap="round" stroke-miterlimit="10" d="M500.2 593.2c-3.2 5.8-8.2 10.5-14.1 13.3M481.3 594.7c-3.5 4-7.7 7.5-12.3 10.2M481.1 581.2c-1.3 2.9-3 5.7-5 8.2M492.6 581.7c-2.1 4-3.8 6.5-7.4 9.1M587.2 365.6c-3.2 7.4-9.4 13.3-17 16.2"></path><linearGradient id="footer-1_19_" gradientUnits="userSpaceOnUse" x1="560.644" y1="403.138" x2="569.565" y2="403.138"><stop offset="0" stop-color="#1318c8"></stop><stop offset=".207" stop-color="#6468dc"></stop><stop offset=".207" stop-color="#bdbff5"></stop><stop offset=".912" stop-color="#373bd1"></stop><stop offset="1" stop-color="#d7dbf9"></stop></linearGradient><path fill="url(#footer-1_19_)" stroke="#1318C8" stroke-linecap="round" stroke-linejoin="round" stroke-miterlimit="10" d="M569.6 400.1c-2.8 2.3-5.8 4.3-8.9 6.1"></path><path fill="none" stroke="#1318C8" stroke-linecap="round" stroke-linejoin="round" stroke-miterlimit="10" d="M583.5 261.4c1 3.4 3 6.4 5.6 8.8"></path><use xlink:href="#footer-1_tree1" width="13.3" height="56" x="-6.8" y="-21.7" transform="matrix(.5958 0 0 -.5958 651.743 469.303)" overflow="visible"></use><use xlink:href="#footer-1_tree1" width="13.3" height="56" x="-6.8" y="-21.7" transform="matrix(.5958 0 0 -.5958 503.503 706.217)" overflow="visible"></use><use xlink:href="#footer-1_tree1" width="13.3" height="56" x="-6.8" y="-21.7" transform="matrix(.7579 0 0 -.7086 517.892 700.612)" overflow="visible"></use><use xlink:href="#footer-1_tree1" width="13.3" height="56" x="-6.8" y="-21.7" transform="matrix(.5958 0 0 -.4223 628.26 471.962)" overflow="visible"></use><path fill="#FFF" stroke="#1318C8" stroke-width="3" stroke-linecap="round" stroke-linejoin="round" stroke-miterlimit="10" d="M483.9 847h-17"></path><path fill="none" stroke="#FFF" stroke-width="3" stroke-linecap="round" stroke-linejoin="round" stroke-miterlimit="10" d="M475.5 989.6l3.2 3M462.6 977.5l7.9 7.4M369.6 889.6l82.1 77.5M345.9 867.3l14.8 13.9M627.6 942.4l-10 9.5M647.9 923.2L636 934.5M692.2 881.4l-38.1 36M707.6 866.9l-5.2 4.9"></path><path fill="#FFF" d="M459.1 722.7c-2.3-.4-4.2-2-4.9-4.4-.3-1.2-2.3-.7-1.9.5.8 2.9 3.3 5.2 6.3 5.8 1.2.3 1.8-1.7.5-1.9zM468.2 726.6c-1.3-.5-2.6-1-4-1.5-1.2-.4-1.7 1.5-.5 1.9 1.3.5 2.6 1 4 1.5 1.2.5 1.7-1.4.5-1.9zM474 727.3h-.3c-1.3 0-1.3 2 0 2h.3c1.3 0 1.3-2 0-2z"></path><path fill="#1318C8" d="M812.4 736.6c.4-1.9-2.5-2.7-2.9-.8-.6 3-1.6 6.7-1.4 9.9-.5.2-.9.8-.9 1.4 0 .9.7 1.4 1.5 1.5.7 0 1.4.1 2 .1.8.1 1.5-.7 1.5-1.5 0-.7-.5-1.2-1.1-1.4-.3-2.9.8-6.4 1.3-9.2z"></path><path fill="#FFF" stroke="#1318C8" stroke-width="3" stroke-linecap="round" stroke-linejoin="round" stroke-miterlimit="10" d="M739 887l-6.1 4.3M760.5 871.8l-15.2 10.7M838.8 816.1l-63.3 45M868.9 794.8l-30.1 21.3M929.7 751.7l-60.8 43.1"></path><path fill="none" stroke="#1318C8" stroke-width="3" stroke-linecap="round" stroke-linejoin="round" stroke-miterlimit="10" d="M325 894.7l4.5 3.3M305.9 881.2l10.7 7.6M262.6 850.5l26 18.4M123.4 751.7l130.3 92.4"></path><g><path fill="none" stroke="#1318C8" stroke-width="3" stroke-linecap="round" stroke-linejoin="round" stroke-miterlimit="10" d="M545.3 442.7V471M558.5 468.2v17.9M600 484.2v21.7M591.5 434.2V454M579.2 481.4V504M583 527.6v18.8M594.3 525.7v15.1M603.7 440.8v20.8M546.2 508.7v24.5M564.1 530.4v15.1M569.8 430.5v27.3M552.8 424.8v12.3M598.1 589.8v32M583.9 616.2v22.6M581.1 671.8v20.7M595.2 650.1v17M551.9 687.8v16M566 647.3v27.3M547.2 718.9v8.5M566 726.5v14.1M586.8 708.6v13.1M567 696.3v12.3M601.8 709.5v12.2M547.2 594.5v18.8M560.4 607.7v17M546.2 655.8v11.3"></path><path fill="none" stroke="#1318C8" stroke-width="2" stroke-linecap="round" stroke-linejoin="round" stroke-miterlimit="10" d="M465.8 625.8V643M476.2 635.6v14.2M508.2 632.7v15M495.4 647.7v11.4M479.8 664v10.7M462.7 674.7v9.3M470.5 696.8v7.1M505.4 671.2v8.5M459.8 706v9.3M485.5 729.5v13.6M494.7 738.8v9.2M505.4 733.8v7.8M519.6 727.4v9.3M512.5 745.2v5M522.5 754.5v4.9M499 755.2v4.9M487.6 755.9v4.2M650.2 589v23.2M670.6 596.7v12.6M661.8 604.5v11.6M648.2 623.9v18.4M669.4 626.1v16.4M659.9 637.7v7.7M650.1 704.8v18M661.6 678.6v9.3M673 691.7v13.6M661 698.2v9.3M674.1 723.3v15.8M663.8 725.5v10.4M648.5 735.3v8.7M656.1 740.2v5.5M622.7 497.6v13.8M636 507.1v11.8M649.3 495.9v14.5M645 525.7v7.5M624.8 536.4v22.1M634.6 544.2v21.4M627.5 586.8v13M631.6 621.8v10.5M623.8 649.8v6.5"></path><path fill="#FFF" d="M629.1 472.1c-.9-4-.9-8-.1-12 .2-1.3-1.7-1.8-1.9-.5-.8 4.4-.8 8.7.1 13.1.2 1.2 2.1.7 1.9-.6zM544.5 402.8v2.9c0 1.3 2 1.3 2 0v-2.9c0-1.3-2-1.3-2 0zM549.7 407.5v1.1c0 1.3 2 1.3 2 0v-1.1c0-1.2-2-1.2-2 0zM562.1 408.3v1.5c0 1.3 2 1.3 2 0v-1.5c0-1.3-2-1.3-2 0zM568.1 410.9c-.2-1.1-1.8-.8-1.9.2-.4.3-.5.9-.3 1.3.3.5.9.6 1.4.4.7-.3.9-1.1.8-1.9zM518.3 530.2v3.1c0 1.3 2 1.3 2 0v-3.1c0-1.3-2-1.3-2 0zM521.9 533.5v.8c0 1.3 2 1.3 2 0v-.8c0-1.3-2-1.3-2 0zM565.4 567.8v4.1c0 1.3 2 1.3 2 0v-4.1c0-1.3-2-1.3-2 0zM555.8 568.8v2c0 1.3 2 1.3 2 0v-2c0-1.3-2-1.3-2 0zM548.2 564.7v2.5c0 1.3 2 1.3 2 0v-2.5c0-1.2-2-1.2-2 0z"></path><path fill="none" stroke="#FFF" stroke-width="2" stroke-linecap="round" stroke-linejoin="round" stroke-miterlimit="10" d="M574.6 324v3.6M579 326.8v2.6M587.1 328.4v.7M583 269.6v5.6M590.1 272.2v1.2M653 569.7v2.6M659.1 570.8v1.5M647.1 656.7v3.3M653 656.7v4.6M486.4 604.6v1.8M469.8 602.6v1.7M473.7 603.8v1.3"></path></g></g><g id="footer-1_clouds1"><g id="footer-1_cloud1" fill="#FFF" stroke="#1318C8" stroke-linecap="round" stroke-miterlimit="10" style="transform: translateY(-84.045px);"><path d="M285.6 453.3h33.9l37.3-.3c-5.8-6.8-15.7-7.8-21.5-3.7-3-5.2-10.4-7.2-15.7-4.3-4.1-6.5-11.6-10.6-19.2-10.7-7.6-.1-15.2 4-19.4 10.4-2-.4-16.7-3.6-21.7 8.6h10M283.7 453.3h-4M271 453.3h1.7"></path></g></g></svg>
